#define cursor_black_width 8
#define cursor_black_height 14
static unsigned char cursor_black_bits[] = {
   0x01, 0x03, 0x05, 0x09, 0x11, 0x21, 0x41, 0x61, 0x21, 0x2f, 0x48, 0x50,
   0x90, 0x60 };
