#define cursor_white_width 8
#define cursor_white_height 14
static unsigned char cursor_white_bits[] = {
   0x00, 0x00, 0x02, 0x06, 0x0e, 0x1e, 0x3e, 0x1e, 0x1e, 0x10, 0x30, 0x20,
   0x60, 0x00 };
