#define neutron_logo_width 240
#define neutron_logo_height 116
static unsigned char neutron_logo_bits[] = {
   0x00, 0x00, 0x00, 0x00, 0x00, 0x00, 0x00, 0x00, 0x00, 0x00, 0x00, 0x00,
   0x00, 0x00, 0x00, 0x00, 0x00, 0x00, 0x00, 0x00, 0x00, 0x00, 0x00, 0x00,
   0x00, 0x00, 0x00, 0x00, 0x00, 0x00, 0x00, 0x00, 0x00, 0x00, 0x00, 0x00,
   0x00, 0x00, 0x00, 0x02, 0x00, 0x00, 0x00, 0x00, 0x00, 0x00, 0x00, 0x00,
   0x00, 0x00, 0x00, 0x00, 0x00, 0x00, 0x00, 0x00, 0x00, 0x00, 0x00, 0x00,
   0x00, 0x00, 0x00, 0x00, 0x00, 0x00, 0x00, 0x00, 0x00, 0x07, 0x00, 0x00,
   0x00, 0x00, 0x00, 0x00, 0x00, 0x00, 0x00, 0x00, 0x00, 0x00, 0x00, 0x00,
   0x00, 0x00, 0x00, 0x00, 0x00, 0x00, 0x00, 0x00, 0x00, 0x00, 0x00, 0x00,
   0x00, 0x00, 0x80, 0x0f, 0x00, 0x00, 0x00, 0x00, 0x00, 0x00, 0x00, 0x00,
   0x00, 0x00, 0x00, 0x00, 0x00, 0x00, 0x00, 0x00, 0x00, 0x00, 0x00, 0x00,
   0x00, 0x00, 0x00, 0x00, 0x00, 0x00, 0x00, 0x00, 0xc0, 0x1d, 0x00, 0x00,
   0x00, 0x00, 0x00, 0x00, 0x00, 0x00, 0x00, 0x00, 0x00, 0x00, 0x00, 0x00,
   0x00, 0x00, 0x00, 0x00, 0x00, 0x00, 0x00, 0x00, 0x00, 0x00, 0x00, 0x00,
   0x00, 0x00, 0xe0, 0x38, 0x00, 0x00, 0x00, 0x00, 0x00, 0x00, 0x00, 0x00,
   0x00, 0x00, 0x00, 0x00, 0x00, 0x00, 0x00, 0x00, 0x00, 0x00, 0x00, 0x00,
   0x00, 0x00, 0x00, 0x00, 0x00, 0x00, 0x00, 0x00, 0x70, 0x70, 0x00, 0x00,
   0x00, 0x00, 0x00, 0x00, 0x00, 0x00, 0x00, 0x00, 0x00, 0x00, 0x00, 0x00,
   0x00, 0x00, 0x00, 0x00, 0x00, 0x00, 0x00, 0x00, 0x00, 0x00, 0x00, 0x00,
   0x00, 0x00, 0x38, 0xe0, 0x00, 0x00, 0x00, 0x00, 0x00, 0x00, 0x00, 0x00,
   0x00, 0x00, 0x00, 0x00, 0x00, 0x00, 0x00, 0x00, 0x00, 0x00, 0x00, 0x00,
   0x00, 0x00, 0x00, 0x00, 0x00, 0x00, 0x00, 0x00, 0x1c, 0xc0, 0x01, 0x00,
   0x00, 0x00, 0x00, 0x00, 0x00, 0x00, 0x00, 0x00, 0x00, 0x00, 0x00, 0x00,
   0x00, 0x00, 0x00, 0x00, 0x00, 0x00, 0x00, 0x00, 0x00, 0x00, 0x00, 0x00,
   0x00, 0x00, 0x0e, 0x80, 0x03, 0x00, 0x00, 0x00, 0x00, 0x00, 0x00, 0x00,
   0x00, 0x00, 0x00, 0x00, 0x00, 0x00, 0x00, 0x00, 0x00, 0x00, 0x00, 0x00,
   0x00, 0x00, 0x00, 0x00, 0x00, 0x00, 0x00, 0x00, 0x07, 0x00, 0x07, 0x00,
   0x00, 0x00, 0x00, 0x00, 0x00, 0x00, 0x00, 0x00, 0x00, 0x00, 0x00, 0x00,
   0x00, 0x00, 0x00, 0x00, 0x00, 0x00, 0x00, 0x00, 0x00, 0x00, 0x00, 0x00,
   0x00, 0x80, 0x03, 0x00, 0x0e, 0x00, 0x00, 0x00, 0x00, 0x00, 0x00, 0x00,
   0x00, 0x00, 0x00, 0x00, 0x00, 0x00, 0x00, 0x00, 0x00, 0x00, 0x00, 0x00,
   0x00, 0x00, 0x00, 0x00, 0x00, 0x00, 0x00, 0xc0, 0x01, 0x00, 0x1c, 0x00,
   0x00, 0x00, 0x00, 0x00, 0x00, 0x00, 0x00, 0x00, 0x00, 0x00, 0x00, 0x00,
   0x00, 0x00, 0x00, 0x00, 0x00, 0x00, 0x00, 0x00, 0x00, 0x00, 0x00, 0x00,
   0x00, 0xe0, 0x00, 0x00, 0x38, 0x00, 0x00, 0x00, 0x00, 0x00, 0x00, 0x00,
   0x00, 0x00, 0x00, 0x00, 0x00, 0x00, 0x00, 0x00, 0x00, 0x00, 0x00, 0x00,
   0x00, 0x00, 0x00, 0x00, 0x00, 0x00, 0x00, 0x70, 0x00, 0x00, 0x70, 0x00,
   0x00, 0x00, 0x00, 0x00, 0x00, 0x00, 0x00, 0x00, 0x00, 0x00, 0x00, 0x00,
   0x00, 0x00, 0x00, 0x00, 0x00, 0x00, 0x00, 0x00, 0x00, 0x00, 0x00, 0x18,
   0x00, 0x38, 0x00, 0x00, 0xe0, 0x00, 0x80, 0x01, 0x00, 0x00, 0x00, 0x00,
   0x00, 0x00, 0x00, 0x00, 0x00, 0x00, 0x00, 0x00, 0x00, 0x00, 0x00, 0x00,
   0x00, 0x00, 0x00, 0x00, 0x00, 0x0c, 0x00, 0x1c, 0x00, 0x00, 0xc0, 0x01,
   0x00, 0x03, 0x00, 0x00, 0x00, 0x00, 0x00, 0x00, 0x00, 0x00, 0x00, 0x00,
   0x00, 0x00, 0x00, 0x00, 0x00, 0x00, 0x00, 0x00, 0x00, 0x00, 0x00, 0x06,
   0x00, 0x0e, 0x00, 0x00, 0x80, 0x03, 0x00, 0x06, 0x00, 0x00, 0x00, 0x00,
   0x00, 0x00, 0x00, 0x00, 0x00, 0x00, 0x00, 0x00, 0x00, 0x00, 0x00, 0x00,
   0x00, 0x00, 0x00, 0x00, 0x00, 0x03, 0x00, 0x07, 0x00, 0x00, 0x00, 0x07,
   0x00, 0x0c, 0x00, 0x00, 0x00, 0x00, 0x00, 0x00, 0x00, 0x00, 0x00, 0x00,
   0x00, 0x00, 0x00, 0x00, 0x00, 0x00, 0x00, 0x00, 0x00, 0x00, 0x80, 0x01,
   0x80, 0x03, 0x00, 0x00, 0x00, 0x0e, 0x00, 0x18, 0x00, 0x00, 0x00, 0x00,
   0x00, 0x00, 0x00, 0x00, 0x00, 0x00, 0x00, 0x00, 0x00, 0x00, 0x00, 0x00,
   0x00, 0x00, 0x00, 0x00, 0xc0, 0x00, 0xc0, 0x01, 0x00, 0x00, 0x00, 0x1c,
   0x00, 0x30, 0x00, 0x00, 0x00, 0x00, 0x00, 0x00, 0x00, 0x00, 0x00, 0x00,
   0x00, 0x00, 0x00, 0x00, 0x00, 0x00, 0x00, 0x00, 0x00, 0x00, 0x60, 0x00,
   0xe0, 0x00, 0x00, 0x00, 0x00, 0x38, 0x00, 0x60, 0x00, 0x00, 0x00, 0x00,
   0x00, 0x00, 0x00, 0x00, 0x00, 0x00, 0x00, 0x00, 0x00, 0x00, 0x00, 0x00,
   0x00, 0x00, 0x00, 0x00, 0x30, 0x00, 0x70, 0x00, 0x00, 0x00, 0x00, 0x70,
   0x00, 0xc0, 0x00, 0x00, 0x00, 0x00, 0x00, 0x00, 0x00, 0x00, 0x00, 0x00,
   0x00, 0x00, 0x00, 0x00, 0x00, 0x00, 0x00, 0x00, 0x00, 0x00, 0x18, 0x00,
   0x38, 0x00, 0x00, 0x00, 0x00, 0xe0, 0x00, 0x80, 0x01, 0x00, 0x00, 0x00,
   0x00, 0x00, 0x00, 0x00, 0x00, 0x00, 0x00, 0x00, 0x00, 0x00, 0x00, 0x00,
   0x00, 0x00, 0x00, 0x00, 0x0c, 0x00, 0x1c, 0x00, 0x00, 0x00, 0x00, 0xc0,
   0x01, 0x00, 0x03, 0x00, 0x00, 0x00, 0x00, 0x00, 0x00, 0x00, 0x00, 0x00,
   0x00, 0x00, 0x00, 0x00, 0x00, 0x00, 0x00, 0x00, 0x00, 0x00, 0x06, 0x00,
   0x0e, 0x00, 0x00, 0x00, 0x00, 0x80, 0x03, 0x00, 0x06, 0x00, 0x00, 0x00,
   0x00, 0x00, 0x00, 0x00, 0x00, 0x00, 0x00, 0x00, 0x00, 0x00, 0x00, 0x00,
   0x00, 0x00, 0x00, 0x00, 0x03, 0x00, 0x07, 0x00, 0x00, 0x00, 0x00, 0x00,
   0x07, 0x00, 0x0c, 0x00, 0x00, 0x00, 0x00, 0x00, 0x00, 0x00, 0x00, 0x00,
   0x00, 0x00, 0x00, 0x00, 0x00, 0x00, 0x00, 0x00, 0x00, 0x80, 0x01, 0x80,
   0x03, 0x00, 0x00, 0x00, 0x00, 0x00, 0x0e, 0x00, 0x18, 0x00, 0x00, 0x00,
   0x00, 0x00, 0x00, 0xf8, 0xff, 0x00, 0x00, 0x00, 0x00, 0xfc, 0x3f, 0x00,
   0x00, 0x00, 0x00, 0xc0, 0x00, 0xc0, 0x01, 0x00, 0x00, 0x00, 0x00, 0x00,
   0x1c, 0x00, 0x30, 0x00, 0x00, 0x00, 0x00, 0x00, 0x00, 0xff, 0xff, 0x07,
   0x00, 0x00, 0x80, 0xff, 0xff, 0x01, 0x00, 0x00, 0x00, 0x60, 0x00, 0xe0,
   0x00, 0x00, 0x00, 0x00, 0x00, 0x00, 0x38, 0x00, 0x60, 0x00, 0x00, 0x00,
   0x00, 0x00, 0xc0, 0xff, 0xff, 0x1f, 0x00, 0x00, 0xe0, 0xff, 0xff, 0x0f,
   0x00, 0x00, 0x00, 0x30, 0x00, 0x70, 0x00, 0x00, 0x00, 0x00, 0x00, 0x00,
   0x70, 0x00, 0xc0, 0x00, 0x00, 0x00, 0x00, 0x00, 0xf0, 0xff, 0xff, 0x7f,
   0x00, 0x00, 0xf0, 0xff, 0xff, 0x1f, 0x00, 0x00, 0x00, 0x18, 0x00, 0x38,
   0x80, 0x0f, 0x00, 0x00, 0xe0, 0x3f, 0xe0, 0x00, 0x80, 0x01, 0x00, 0x00,
   0x00, 0x00, 0xf8, 0xff, 0xff, 0xff, 0x00, 0x00, 0xfc, 0xff, 0xff, 0x1f,
   0x00, 0x00, 0x00, 0x0c, 0x00, 0x1c, 0x80, 0x1f, 0x00, 0x00, 0xe0, 0x3f,
   0xc0, 0x01, 0x00, 0x03, 0x00, 0x00, 0x00, 0x00, 0xfc, 0xff, 0xff, 0xff,
   0x01, 0x00, 0xfc, 0xff, 0xff, 0x0f, 0x00, 0x00, 0x00, 0x06, 0x00, 0x0e,
   0x80, 0x3f, 0x00, 0x00, 0xe0, 0x3f, 0x80, 0x03, 0x00, 0x06, 0x00, 0x00,
   0x00, 0x00, 0xfe, 0xff, 0xff, 0xff, 0x03, 0x00, 0xfe, 0xff, 0xff, 0x0f,
   0x00, 0x00, 0x00, 0x03, 0x00, 0x07, 0x80, 0x3f, 0x00, 0x00, 0xe0, 0x3f,
   0x00, 0x07, 0x00, 0x0c, 0x00, 0x00, 0x00, 0x00, 0xff, 0xff, 0xff, 0xff,
   0x07, 0x00, 0xff, 0xff, 0xff, 0x0f, 0x00, 0x00, 0x80, 0x01, 0x80, 0x03,
   0x80, 0x7f, 0x00, 0x00, 0xe0, 0x3f, 0x00, 0x0e, 0x00, 0x18, 0x00, 0x00,
   0x00, 0x80, 0xff, 0xff, 0xff, 0xff, 0x0f, 0x00, 0xff, 0x1f, 0xfc, 0x07,
   0x00, 0x00, 0xc0, 0x00, 0xc0, 0x01, 0x80, 0xff, 0x00, 0x00, 0xe0, 0x3f,
   0x00, 0x1c, 0x00, 0x30, 0x00, 0x00, 0x00, 0xc0, 0xff, 0x0f, 0xe0, 0xff,
   0x0f, 0x80, 0xff, 0x07, 0xe0, 0x07, 0x00, 0x00, 0x60, 0x00, 0xe0, 0x00,
   0x80, 0xff, 0x01, 0x00, 0xe0, 0x3f, 0x00, 0x38, 0x00, 0x60, 0x00, 0x00,
   0x00, 0xc0, 0xff, 0x07, 0x00, 0xff, 0x1f, 0x80, 0xff, 0x03, 0x80, 0x07,
   0x00, 0x00, 0x30, 0x00, 0x70, 0x00, 0x80, 0xff, 0x01, 0x00, 0xe0, 0x3f,
   0x00, 0x70, 0x00, 0xc0, 0x00, 0x00, 0x00, 0xe0, 0xff, 0x01, 0x00, 0xfe,
   0x3f, 0x80, 0xff, 0x01, 0x00, 0x00, 0x00, 0x00, 0x18, 0x00, 0x38, 0x00,
   0x80, 0xff, 0x03, 0x00, 0xe0, 0x3f, 0x00, 0xe0, 0x00, 0x80, 0x01, 0x00,
   0x00, 0xe0, 0xff, 0x00, 0x00, 0xfc, 0x3f, 0x80, 0xff, 0x01, 0x00, 0x00,
   0x00, 0x00, 0x0c, 0x00, 0x1c, 0x00, 0x80, 0xff, 0x07, 0x00, 0xe0, 0x3f,
   0x00, 0xc0, 0x01, 0x00, 0x03, 0x00, 0x00, 0xf0, 0x7f, 0x00, 0x00, 0xf8,
   0x7f, 0x80, 0xff, 0x01, 0x00, 0x00, 0x00, 0x00, 0x06, 0x00, 0x0e, 0x00,
   0x80, 0xff, 0x0f, 0x00, 0xe0, 0x3f, 0x00, 0x80, 0x03, 0x00, 0x06, 0x00,
   0x00, 0xf0, 0x7f, 0x00, 0x00, 0xf0, 0x7f, 0x80, 0xff, 0x01, 0x00, 0x00,
   0x00, 0x00, 0x03, 0x00, 0x07, 0x00, 0x80, 0xff, 0x1f, 0x00, 0xe0, 0x3f,
   0x00, 0x00, 0x07, 0x00, 0x0c, 0x00, 0x00, 0xf8, 0x3f, 0x00, 0x00, 0xf0,
   0x7f, 0x80, 0xff, 0x01, 0x00, 0x00, 0x00, 0x80, 0x01, 0x80, 0x03, 0x00,
   0x80, 0xff, 0x1f, 0x00, 0xe0, 0x3f, 0x00, 0x00, 0x0e, 0x00, 0x18, 0x00,
   0x00, 0xf8, 0x3f, 0x00, 0x00, 0xe0, 0xff, 0x80, 0xff, 0x01, 0x00, 0x00,
   0x00, 0xc0, 0x00, 0xc0, 0x01, 0x00, 0x80, 0xff, 0x3f, 0x00, 0xe0, 0x3f,
   0x00, 0x00, 0x1c, 0x00, 0x30, 0x00, 0x00, 0xf8, 0x1f, 0x00, 0x00, 0xe0,
   0xff, 0x80, 0xff, 0x03, 0x00, 0x00, 0x00, 0x60, 0x00, 0xe0, 0x00, 0x00,
   0x80, 0xff, 0x7f, 0x00, 0xe0, 0x3f, 0x00, 0x00, 0x38, 0x00, 0x60, 0x00,
   0x00, 0xfc, 0x1f, 0x00, 0x00, 0xe0, 0xff, 0x80, 0xff, 0x07, 0x00, 0x00,
   0x00, 0x30, 0x00, 0x70, 0x00, 0x00, 0x80, 0xff, 0xff, 0x00, 0xe0, 0x3f,
   0x00, 0x00, 0x70, 0x00, 0xc0, 0x00, 0x00, 0xfc, 0x1f, 0x00, 0x00, 0xc0,
   0xff, 0x80, 0xff, 0x07, 0x00, 0x00, 0x00, 0x18, 0x00, 0x38, 0x00, 0x00,
   0x80, 0xff, 0xff, 0x01, 0xe0, 0x3f, 0x00, 0x00, 0xe0, 0x00, 0x80, 0x01,
   0x00, 0xfc, 0x0f, 0x00, 0x00, 0xc0, 0xff, 0x00, 0xff, 0x1f, 0x00, 0x00,
   0x00, 0x0c, 0x00, 0x1c, 0x00, 0x00, 0x80, 0xff, 0xff, 0x01, 0xe0, 0x3f,
   0x00, 0x00, 0xc0, 0x01, 0x00, 0x03, 0x00, 0xfc, 0x0f, 0x00, 0x00, 0xc0,
   0xff, 0x01, 0xff, 0x3f, 0x00, 0x00, 0x00, 0x06, 0x00, 0x0e, 0x00, 0x00,
   0x80, 0xff, 0xff, 0x03, 0xe0, 0x3f, 0x00, 0x00, 0x80, 0x03, 0x00, 0x06,
   0x00, 0xfc, 0x0f, 0x00, 0x00, 0xc0, 0xff, 0x01, 0xfe, 0xff, 0x00, 0x00,
   0x00, 0x03, 0x00, 0x07, 0x00, 0x00, 0x80, 0xff, 0xff, 0x07, 0xe0, 0x3f,
   0x00, 0x00, 0x00, 0x07, 0x00, 0x0c, 0x00, 0xfc, 0x0f, 0x00, 0x00, 0xc0,
   0xff, 0x01, 0xfe, 0xff, 0x03, 0x00, 0x80, 0x01, 0x80, 0x03, 0x00, 0x00,
   0x80, 0xff, 0xff, 0x0f, 0xe0, 0x3f, 0x00, 0x00, 0x00, 0x0e, 0x00, 0x18,
   0x00, 0xfc, 0x0f, 0x00, 0x00, 0xc0, 0xff, 0x01, 0xfc, 0xff, 0x0f, 0x00,
   0xc0, 0x00, 0xc0, 0x01, 0x00, 0x00, 0x80, 0xff, 0xfe, 0x0f, 0xe0, 0x3f,
   0x00, 0x00, 0x00, 0x1c, 0x00, 0x30, 0x00, 0xfc, 0x0f, 0x00, 0x00, 0xc0,
   0xff, 0x01, 0xf8, 0xff, 0x3f, 0x00, 0x60, 0x00, 0xe0, 0x00, 0x00, 0x00,
   0x80, 0xff, 0xfc, 0x1f, 0xe0, 0x3f, 0x00, 0x00, 0x00, 0x38, 0x00, 0x60,
   0x00, 0xfc, 0x0f, 0x00, 0x00, 0xc0, 0xff, 0x01, 0xf0, 0xff, 0x7f, 0x00,
   0x30, 0x00, 0x70, 0x00, 0x00, 0x00, 0x80, 0xff, 0xf8, 0x3f, 0xe0, 0x3f,
   0x00, 0x00, 0x00, 0x70, 0x00, 0xc0, 0x00, 0xfc, 0x0f, 0x00, 0x00, 0xc0,
   0xff, 0x01, 0xc0, 0xff, 0xff, 0x01, 0x18, 0x00, 0x38, 0x00, 0x00, 0x00,
   0x80, 0xff, 0xf0, 0x7f, 0xe0, 0x3f, 0x00, 0x00, 0x00, 0xe0, 0x00, 0x80,
   0x01, 0xfc, 0x0f, 0x00, 0x00, 0xc0, 0xff, 0x01, 0x80, 0xff, 0xff, 0x03,
   0x0c, 0x00, 0x1c, 0x00, 0x00, 0x00, 0x80, 0xff, 0xf0, 0xff, 0xe0, 0x3f,
   0x00, 0x00, 0x00, 0xc0, 0x01, 0x00, 0x03, 0xfc, 0x0f, 0x00, 0x00, 0xc0,
   0xff, 0x01, 0x00, 0xfe, 0xff, 0x07, 0x06, 0x00, 0x0e, 0x00, 0x00, 0x00,
   0x80, 0xff, 0xe0, 0xff, 0xe0, 0x3f, 0x00, 0x00, 0x00, 0x80, 0x03, 0x00,
   0x06, 0xfc, 0x0f, 0x00, 0x00, 0xc0, 0xff, 0x01, 0x00, 0xf8, 0xff, 0x0f,
   0x06, 0x00, 0x0e, 0x00, 0x00, 0x00, 0x80, 0xff, 0xc0, 0xff, 0xe1, 0x3f,
   0x00, 0x00, 0x00, 0x80, 0x03, 0x00, 0x06, 0xfc, 0x0f, 0x00, 0x00, 0xc0,
   0xff, 0x01, 0x00, 0xe0, 0xff, 0x1f, 0x0c, 0x00, 0x1c, 0x00, 0x00, 0x00,
   0x80, 0xff, 0x80, 0xff, 0xe3, 0x3f, 0x00, 0x00, 0x00, 0xc0, 0x01, 0x00,
   0x03, 0xfc, 0x0f, 0x00, 0x00, 0xc0, 0xff, 0x01, 0x00, 0x80, 0xff, 0x1f,
   0x18, 0x00, 0x38, 0x00, 0x00, 0x00, 0x80, 0xff, 0x80, 0xff, 0xe7, 0x3f,
   0x00, 0x00, 0x00, 0xe0, 0x00, 0x80, 0x01, 0xfc, 0x0f, 0x00, 0x00, 0xc0,
   0xff, 0x00, 0x00, 0x00, 0xff, 0x3f, 0x30, 0x00, 0x70, 0x00, 0x00, 0x00,
   0x80, 0xff, 0x00, 0xff, 0xef, 0x3f, 0x00, 0x00, 0x00, 0x70, 0x00, 0xc0,
   0x00, 0xfc, 0x0f, 0x00, 0x00, 0xc0, 0xff, 0x00, 0x00, 0x00, 0xfc, 0x3f,
   0x60, 0x00, 0xe0, 0x00, 0x00, 0x00, 0x80, 0xff, 0x00, 0xfe, 0xef, 0x3f,
   0x00, 0x00, 0x00, 0x38, 0x00, 0x60, 0x00, 0xfc, 0x0f, 0x00, 0x00, 0xc0,
   0xff, 0x00, 0x00, 0x00, 0xf8, 0x7f, 0xc0, 0x00, 0xc0, 0x01, 0x00, 0x00,
   0x80, 0xff, 0x00, 0xfc, 0xff, 0x3f, 0x00, 0x00, 0x00, 0x1c, 0x00, 0x30,
   0x00, 0xfc, 0x1f, 0x00, 0x00, 0xe0, 0xff, 0x00, 0x00, 0x00, 0xf0, 0x7f,
   0x80, 0x01, 0x80, 0x03, 0x00, 0x00, 0x80, 0xff, 0x00, 0xf8, 0xff, 0x3f,
   0x00, 0x00, 0x00, 0x0e, 0x00, 0x18, 0x00, 0xfc, 0x1f, 0x00, 0x00, 0xe0,
   0xff, 0x00, 0x00, 0x00, 0xf0, 0x7f, 0x00, 0x03, 0x00, 0x07, 0x00, 0x00,
   0x80, 0xff, 0x00, 0xf8, 0xff, 0x3f, 0x00, 0x00, 0x00, 0x07, 0x00, 0x0c,
   0x00, 0xf8, 0x1f, 0x00, 0x00, 0xe0, 0x7f, 0x00, 0x00, 0x00, 0xe0, 0x7f,
   0x00, 0x06, 0x00, 0x0e, 0x00, 0x00, 0x80, 0xff, 0x00, 0xf0, 0xff, 0x3f,
   0x00, 0x00, 0x80, 0x03, 0x00, 0x06, 0x00, 0xf8, 0x3f, 0x00, 0x00, 0xf0,
   0x7f, 0x00, 0x00, 0x00, 0xe0, 0x7f, 0x00, 0x0c, 0x00, 0x1c, 0x00, 0x00,
   0x80, 0xff, 0x00, 0xe0, 0xff, 0x3f, 0x00, 0x00, 0xc0, 0x01, 0x00, 0x03,
   0x00, 0xf8, 0x3f, 0x00, 0x00, 0xf0, 0x7f, 0x00, 0x00, 0x00, 0xe0, 0x7f,
   0x00, 0x18, 0x00, 0x38, 0x00, 0x00, 0x80, 0xff, 0x00, 0xc0, 0xff, 0x3f,
   0x00, 0x00, 0xe0, 0x00, 0x80, 0x01, 0x00, 0xf0, 0x7f, 0x00, 0x00, 0xf8,
   0x3f, 0x00, 0x00, 0x00, 0xe0, 0x7f, 0x00, 0x30, 0x00, 0x70, 0x00, 0x00,
   0x80, 0xff, 0x00, 0xc0, 0xff, 0x3f, 0x00, 0x00, 0x70, 0x00, 0xc0, 0x00,
   0x00, 0xf0, 0x7f, 0x00, 0x00, 0xfc, 0x3f, 0x00, 0x00, 0x00, 0xe0, 0x7f,
   0x00, 0x60, 0x00, 0xe0, 0x00, 0x00, 0x80, 0xff, 0x00, 0x80, 0xff, 0x3f,
   0x00, 0x00, 0x38, 0x00, 0x60, 0x00, 0x00, 0xf0, 0xff, 0x00, 0x00, 0xfe,
   0x1f, 0x00, 0x00, 0x00, 0xe0, 0x7f, 0x00, 0xc0, 0x00, 0xc0, 0x01, 0x00,
   0x80, 0xff, 0x00, 0x00, 0xff, 0x3f, 0x00, 0x00, 0x1c, 0x00, 0x30, 0x00,
   0x00, 0xe0, 0xff, 0x01, 0x00, 0xff, 0x1f, 0x00, 0x1e, 0x00, 0xe0, 0x7f,
   0x00, 0x80, 0x01, 0x80, 0x03, 0x00, 0x80, 0xff, 0x00, 0x00, 0xfe, 0x3f,
   0x00, 0x00, 0x0e, 0x00, 0x18, 0x00, 0x00, 0xe0, 0xff, 0x07, 0xc0, 0xff,
   0x0f, 0x00, 0x7e, 0x00, 0xf8, 0x7f, 0x00, 0x00, 0x03, 0x00, 0x07, 0x00,
   0x80, 0xff, 0x00, 0x00, 0xfc, 0x3f, 0x00, 0x00, 0x07, 0x00, 0x0c, 0x00,
   0x00, 0xc0, 0xff, 0x1f, 0xf0, 0xff, 0x0f, 0x00, 0xff, 0x03, 0xfc, 0x3f,
   0x00, 0x00, 0x06, 0x00, 0x0e, 0x00, 0x80, 0xff, 0x00, 0x00, 0xfc, 0x3f,
   0x00, 0x80, 0x03, 0x00, 0x06, 0x00, 0x00, 0x80, 0xff, 0xff, 0xff, 0xff,
   0x07, 0x00, 0xff, 0xff, 0xff, 0x3f, 0x00, 0x00, 0x0c, 0x00, 0x1c, 0x00,
   0x80, 0xff, 0x00, 0x00, 0xf8, 0x3f, 0x00, 0xc0, 0x01, 0x00, 0x03, 0x00,
   0x00, 0x80, 0xff, 0xff, 0xff, 0xff, 0x03, 0x00, 0xff, 0xff, 0xff, 0x1f,
   0x00, 0x00, 0x18, 0x00, 0x38, 0x00, 0x80, 0xff, 0x00, 0x00, 0xf0, 0x3f,
   0x00, 0xe0, 0x00, 0x80, 0x01, 0x00, 0x00, 0x00, 0xff, 0xff, 0xff, 0xff,
   0x01, 0x80, 0xff, 0xff, 0xff, 0x0f, 0x00, 0x00, 0x30, 0x00, 0x70, 0x00,
   0x80, 0xff, 0x00, 0x00, 0xe0, 0x3f, 0x00, 0x70, 0x00, 0xc0, 0x00, 0x00,
   0x00, 0x00, 0xfe, 0xff, 0xff, 0xff, 0x00, 0x80, 0xff, 0xff, 0xff, 0x0f,
   0x00, 0x00, 0x60, 0x00, 0xe0, 0x00, 0x80, 0xff, 0x00, 0x00, 0xe0, 0x3f,
   0x00, 0x38, 0x00, 0x60, 0x00, 0x00, 0x00, 0x00, 0xfc, 0xff, 0xff, 0x7f,
   0x00, 0x80, 0xff, 0xff, 0xff, 0x03, 0x00, 0x00, 0xc0, 0x00, 0xc0, 0x01,
   0x80, 0xff, 0x00, 0x00, 0xc0, 0x3f, 0x00, 0x1c, 0x00, 0x30, 0x00, 0x00,
   0x00, 0x00, 0xf0, 0xff, 0xff, 0x1f, 0x00, 0x80, 0xff, 0xff, 0xff, 0x01,
   0x00, 0x00, 0x80, 0x01, 0x80, 0x03, 0x80, 0xff, 0x00, 0x00, 0x80, 0x3f,
   0x00, 0x0e, 0x00, 0x18, 0x00, 0x00, 0x00, 0x00, 0xe0, 0xff, 0xff, 0x07,
   0x00, 0x00, 0xfe, 0xff, 0x7f, 0x00, 0x00, 0x00, 0x00, 0x03, 0x00, 0x07,
   0x80, 0xff, 0x00, 0x00, 0x00, 0x3f, 0x00, 0x07, 0x00, 0x0c, 0x00, 0x00,
   0x00, 0x00, 0x00, 0xff, 0xff, 0x03, 0x00, 0x00, 0xf0, 0xff, 0x1f, 0x00,
   0x00, 0x00, 0x00, 0x06, 0x00, 0x0e, 0x80, 0xff, 0x00, 0x00, 0x00, 0x3f,
   0x80, 0x03, 0x00, 0x06, 0x00, 0x00, 0x00, 0x00, 0x00, 0xf8, 0x0f, 0x00,
   0x00, 0x00, 0x00, 0xfe, 0x01, 0x00, 0x00, 0x00, 0x00, 0x0c, 0x00, 0x1c,
   0x80, 0xff, 0x00, 0x00, 0x00, 0x3e, 0xc0, 0x01, 0x00, 0x03, 0x00, 0x00,
   0x00, 0x00, 0x00, 0x00, 0x00, 0x00, 0x00, 0x00, 0x00, 0x00, 0x00, 0x00,
   0x00, 0x00, 0x00, 0x18, 0x00, 0x38, 0x80, 0xff, 0x00, 0x00, 0x00, 0x3c,
   0xe0, 0x00, 0x80, 0x01, 0x00, 0x00, 0x00, 0x00, 0x00, 0x00, 0x00, 0x00,
   0x00, 0x00, 0x00, 0x00, 0x00, 0x00, 0x00, 0x00, 0x00, 0x30, 0x00, 0x70,
   0x00, 0x00, 0x00, 0x00, 0x00, 0x00, 0x70, 0x00, 0xc0, 0x00, 0x00, 0x00,
   0x00, 0x00, 0x00, 0x00, 0x00, 0x00, 0x00, 0x00, 0x00, 0x00, 0x00, 0x00,
   0x00, 0x00, 0x00, 0x60, 0x00, 0xe0, 0x00, 0x00, 0x00, 0x00, 0x00, 0x00,
   0x38, 0x00, 0x60, 0x00, 0x00, 0x00, 0x00, 0x00, 0x00, 0x00, 0x00, 0x00,
   0x00, 0x00, 0x00, 0x00, 0x00, 0x00, 0x00, 0x00, 0x00, 0xc0, 0x00, 0xc0,
   0x01, 0x00, 0x00, 0x00, 0x00, 0x00, 0x1c, 0x00, 0x30, 0x00, 0x00, 0x00,
   0x00, 0x00, 0x00, 0x00, 0x00, 0x00, 0x00, 0x00, 0x00, 0x00, 0x00, 0x00,
   0x00, 0x00, 0x00, 0x80, 0x01, 0x80, 0x03, 0x00, 0x00, 0x00, 0x00, 0x00,
   0x0e, 0x00, 0x18, 0x00, 0x00, 0x00, 0x00, 0x00, 0x00, 0x00, 0x00, 0x00,
   0x00, 0x00, 0x00, 0x00, 0x00, 0x00, 0x00, 0x00, 0x00, 0x00, 0x03, 0x00,
   0x07, 0x00, 0x00, 0x00, 0x00, 0x00, 0x07, 0x00, 0x0c, 0x00, 0x00, 0x00,
   0x00, 0x00, 0x00, 0x00, 0x00, 0x00, 0x00, 0x00, 0x00, 0x00, 0x00, 0x00,
   0x00, 0x00, 0x00, 0x00, 0x06, 0x00, 0x0e, 0x00, 0x00, 0x00, 0x00, 0x80,
   0x03, 0x00, 0x06, 0x00, 0x00, 0x00, 0x00, 0x00, 0x00, 0x00, 0x00, 0x00,
   0x00, 0x00, 0x00, 0x00, 0x00, 0x00, 0x00, 0x00, 0x00, 0x00, 0x0c, 0x00,
   0x1c, 0x00, 0x00, 0x00, 0x00, 0xc0, 0x01, 0x00, 0x03, 0x00, 0x00, 0x00,
   0x00, 0x00, 0x00, 0x00, 0x00, 0x00, 0x00, 0x00, 0x00, 0x00, 0x00, 0x00,
   0x00, 0x00, 0x00, 0x00, 0x18, 0x00, 0x38, 0x00, 0x00, 0x00, 0x00, 0xe0,
   0x00, 0x80, 0x01, 0x00, 0x00, 0x00, 0x00, 0x00, 0x00, 0x00, 0x00, 0x00,
   0x00, 0x00, 0x00, 0x00, 0x00, 0x00, 0x00, 0x00, 0x00, 0x00, 0x30, 0x00,
   0x70, 0x00, 0x00, 0x00, 0x00, 0x70, 0x00, 0xc0, 0x00, 0x00, 0x00, 0x00,
   0x00, 0x00, 0x00, 0x00, 0x00, 0x00, 0x00, 0x00, 0x00, 0x00, 0x00, 0x00,
   0x00, 0x00, 0x00, 0x00, 0x60, 0x00, 0xe0, 0x00, 0x00, 0x00, 0x00, 0x38,
   0x00, 0x60, 0x00, 0x00, 0x00, 0x00, 0x00, 0x00, 0x00, 0x00, 0x00, 0x00,
   0x00, 0x00, 0x00, 0x00, 0x00, 0x00, 0x00, 0x00, 0x00, 0x00, 0xc0, 0x00,
   0xc0, 0x01, 0x00, 0x00, 0x00, 0x1c, 0x00, 0x30, 0x00, 0x00, 0x00, 0x00,
   0x00, 0x00, 0x00, 0x00, 0x00, 0x00, 0x00, 0x00, 0x00, 0x00, 0x00, 0x00,
   0x00, 0x00, 0x00, 0x00, 0x80, 0x01, 0x80, 0x03, 0x00, 0x00, 0x00, 0x0e,
   0x00, 0x18, 0x00, 0x00, 0x00, 0x00, 0x00, 0x00, 0x00, 0x00, 0x00, 0x00,
   0x00, 0x00, 0x00, 0x00, 0x00, 0x00, 0x00, 0x00, 0x00, 0x00, 0x00, 0x03,
   0x00, 0x07, 0x00, 0x00, 0x00, 0x07, 0x00, 0x0c, 0x00, 0x00, 0x00, 0x00,
   0x00, 0x00, 0x00, 0x00, 0x00, 0x00, 0x00, 0x00, 0x00, 0x00, 0x00, 0x00,
   0x00, 0x00, 0x00, 0x00, 0x00, 0x06, 0x00, 0x0e, 0x00, 0x00, 0x80, 0x03,
   0x00, 0x06, 0x00, 0x00, 0x00, 0x00, 0x00, 0x00, 0x00, 0x00, 0x00, 0x00,
   0x00, 0x00, 0x00, 0x00, 0x00, 0x00, 0x00, 0x00, 0x00, 0x00, 0x00, 0x0c,
   0x00, 0x1c, 0x00, 0x00, 0xc0, 0x01, 0x00, 0x03, 0x00, 0x00, 0x00, 0x00,
   0x00, 0x00, 0x00, 0x00, 0x00, 0x00, 0x00, 0x00, 0x00, 0x00, 0x00, 0x00,
   0x00, 0x00, 0x00, 0x00, 0x00, 0x18, 0x00, 0x38, 0x00, 0x00, 0xe0, 0x00,
   0x80, 0x01, 0x00, 0x00, 0x00, 0x00, 0x00, 0x00, 0x00, 0x00, 0x00, 0x00,
   0x00, 0x00, 0x00, 0x00, 0x00, 0x00, 0x00, 0x00, 0x00, 0x00, 0x00, 0x00,
   0x00, 0x70, 0x00, 0x00, 0x70, 0x00, 0x00, 0x00, 0x00, 0x00, 0x00, 0x00,
   0x00, 0x00, 0x00, 0x00, 0x00, 0x00, 0x00, 0x00, 0x00, 0x00, 0x00, 0x00,
   0x00, 0x00, 0x00, 0x00, 0x00, 0x00, 0x00, 0xe0, 0x00, 0x00, 0x38, 0x00,
   0x00, 0x00, 0x00, 0x00, 0x00, 0x00, 0x00, 0x00, 0x00, 0x00, 0x00, 0x00,
   0x00, 0x00, 0x00, 0x00, 0x00, 0x00, 0x00, 0x00, 0x00, 0x00, 0x00, 0x00,
   0x00, 0xc0, 0x01, 0x00, 0x1c, 0x00, 0x00, 0x00, 0x00, 0x00, 0x00, 0x00,
   0x00, 0x00, 0x00, 0x00, 0x00, 0x00, 0x00, 0x00, 0x00, 0x00, 0x00, 0x00,
   0x00, 0x00, 0x00, 0x00, 0x00, 0x00, 0x00, 0x80, 0x03, 0x00, 0x0e, 0x00,
   0x00, 0x00, 0x00, 0x00, 0x00, 0x00, 0x00, 0x00, 0x00, 0x00, 0x00, 0x00,
   0x00, 0x00, 0x00, 0x00, 0x00, 0x00, 0x00, 0x00, 0x00, 0x00, 0x00, 0x00,
   0x00, 0x00, 0x07, 0x00, 0x07, 0x00, 0x00, 0x00, 0x00, 0x00, 0x00, 0x00,
   0x00, 0x00, 0x00, 0x00, 0x00, 0x00, 0x00, 0x00, 0x00, 0x00, 0x00, 0x00,
   0x00, 0x00, 0x00, 0x00, 0x00, 0x00, 0x00, 0x00, 0x0e, 0x80, 0x03, 0x00,
   0x00, 0x00, 0x00, 0x00, 0x00, 0x00, 0x00, 0x00, 0x00, 0x00, 0x00, 0x00,
   0x00, 0x00, 0x00, 0x00, 0x00, 0x00, 0x00, 0x00, 0x00, 0x00, 0x00, 0x00,
   0x00, 0x00, 0x1c, 0xc0, 0x01, 0x00, 0x00, 0x00, 0x00, 0x00, 0x00, 0x00,
   0x00, 0x00, 0x00, 0x00, 0x00, 0x00, 0x00, 0x00, 0x00, 0x00, 0x00, 0x00,
   0x00, 0x00, 0x00, 0x00, 0x00, 0x00, 0x00, 0x00, 0x38, 0xe0, 0x00, 0x00,
   0x00, 0x00, 0x00, 0x00, 0x00, 0x00, 0x00, 0x00, 0x00, 0x00, 0x00, 0x00,
   0x00, 0x00, 0x00, 0x00, 0x00, 0x00, 0x00, 0x00, 0x00, 0x00, 0x00, 0x00,
   0x00, 0x00, 0x70, 0x70, 0x00, 0x00, 0x00, 0x00, 0x00, 0x00, 0x00, 0x00,
   0x00, 0x00, 0x00, 0x00, 0x00, 0x00, 0x00, 0x00, 0x00, 0x00, 0x00, 0x00,
   0x00, 0x00, 0x00, 0x00, 0x00, 0x00, 0x00, 0x00, 0xe0, 0x38, 0x00, 0x00,
   0x00, 0x00, 0x00, 0x00, 0x00, 0x00, 0x00, 0x00, 0x00, 0x00, 0x00, 0x00,
   0x00, 0x00, 0x00, 0x00, 0x00, 0x00, 0x00, 0x00, 0x00, 0x00, 0x00, 0x00,
   0x00, 0x00, 0xc0, 0x1d, 0x00, 0x00, 0x00, 0x00, 0x00, 0x00, 0x00, 0x00,
   0x00, 0x00, 0x00, 0x00, 0x00, 0x00, 0x00, 0x00, 0x00, 0x00, 0x00, 0x00,
   0x00, 0x00, 0x00, 0x00, 0x00, 0x00, 0x00, 0x00, 0x80, 0x0f, 0x00, 0x00,
   0x00, 0x00, 0x00, 0x00, 0x00, 0x00, 0x00, 0x00, 0x00, 0x00, 0x00, 0x00,
   0x00, 0x00, 0x00, 0x00, 0x00, 0x00, 0x00, 0x00, 0x00, 0x00, 0x00, 0x00,
   0x00, 0x00, 0x00, 0x07, 0x00, 0x00, 0x00, 0x00, 0x00, 0x00, 0x00, 0x00,
   0x00, 0x00, 0x00, 0x00, 0x00, 0x00, 0x00, 0x00, 0x00, 0x00, 0x00, 0x00,
   0x00, 0x00, 0x00, 0x00, 0x00, 0x00, 0x00, 0x00, 0x00, 0x02, 0x00, 0x00,
   0x00, 0x00, 0x00, 0x00, 0x00, 0x00, 0x00, 0x00, 0x00, 0x00, 0x00, 0x00,
   0x00, 0x00, 0x00, 0x00, 0x00, 0x00, 0x00, 0x00, 0x00, 0x00, 0x00, 0x00,
   0x00, 0x00, 0x00, 0x00, 0x00, 0x00, 0x00, 0x00, 0x00, 0x00, 0x00, 0x00,
   0x00, 0x00, 0x00, 0x00, 0x00, 0x00, 0x00, 0x00, 0x00, 0x00, 0x00, 0x00 };
