#define win_minimize_width 8
#define win_minimize_height 8
static unsigned char win_minimize_bits[] = {
   0x00, 0x00, 0x00, 0x7e, 0x00, 0x00, 0x00, 0x00 };
