#define power_width 16
#define power_height 16
static unsigned char power_bits[] = {
   0x80, 0x01, 0x80, 0x01, 0x8c, 0x31, 0x8e, 0x71, 0x86, 0x61, 0x87, 0xe1,
   0x87, 0xe1, 0x83, 0xc1, 0x83, 0xc1, 0x07, 0xe0, 0x07, 0xe0, 0x06, 0x60,
   0x0e, 0x70, 0x7c, 0x3e, 0xf8, 0x1f, 0xe0, 0x07 };
