#define power_width 16
#define power_height 16
static unsigned char power_bits[] = {
   0x80, 0x01, 0x80, 0x01, 0x98, 0x19, 0x98, 0x19, 0x8c, 0x31, 0x8c, 0x31,
   0x86, 0x61, 0x86, 0x61, 0x86, 0x61, 0x06, 0x60, 0x0c, 0x30, 0x0c, 0x30,
   0x38, 0x1c, 0xf0, 0x0f, 0xc0, 0x03, 0x00, 0x00 };
