#define system_width 16
#define system_height 16
static unsigned char system_bits[] = {
   0x00, 0x00, 0x00, 0x00, 0x80, 0x01, 0x90, 0x09, 0x78, 0x1e, 0x30, 0x0c,
   0x90, 0x09, 0x4c, 0x32, 0x4c, 0x32, 0x90, 0x09, 0x30, 0x0c, 0x78, 0x1e,
   0x90, 0x09, 0x80, 0x01, 0x00, 0x00, 0x00, 0x00 };
